<svg xmlns="http://www.w3.org/2000/svg">
  <symbol fill="none" stroke="currentColor" stroke-width="1.9" stroke-linecap="round" stroke-linejoin="round" id="gamepad" viewBox="0 0 24 24"><path d="M7 15h-.01M10 12H7m1.5-1.5v3M17 13h-.01M19 15h-.01"/><path d="M7.5 18h9a5 5 0 0 0 4.7-6.7l-.5-1.5A4 4 0 0 0 16.9 7H7.1a4 4 0 0 0-3.8 2.8l-.5 1.5A5 5 0 0 0 7.5 18Z"/></symbol>
  <symbol fill="none" stroke="currentColor" stroke-width="1.9" stroke-linecap="round" stroke-linejoin="round" id="shield" viewBox="0 0 24 24"><path d="M12 3 5 6v5c0 4.5 3 8.7 7 10 4-1.3 7-5.5 7-10V6l-7-3Z"/><path d="m9.5 12 1.7 1.7L15.8 9"/></symbol>
  <symbol fill="none" stroke="currentColor" stroke-width="1.9" stroke-linecap="round" stroke-linejoin="round" id="car" viewBox="0 0 24 24"><path d="M5 16h14M7 19h.01M17 19h.01"/><path d="M6 16l1.4-5A3 3 0 0 1 10.3 9h3.4a3 3 0 0 1 2.9 2l1.4 5"/><path d="M5 16v3M19 16v3M8 13h.01M16 13h.01"/></symbol>
  <symbol fill="none" stroke="currentColor" stroke-width="1.9" stroke-linecap="round" stroke-linejoin="round" id="parking" viewBox="0 0 24 24"><path d="M5 4h8a5 5 0 0 1 0 10H9v6H5V4Z"/><path d="M9 8h4a1 1 0 0 1 0 2H9V8Z"/></symbol>
  <symbol fill="none" stroke="currentColor" stroke-width="1.9" stroke-linecap="round" stroke-linejoin="round" id="settings" viewBox="0 0 24 24"><path d="M12 15.5a3.5 3.5 0 1 0 0-7 3.5 3.5 0 0 0 0 7Z"/><path d="M19.4 15a1.7 1.7 0 0 0 .3 1.9l.1.1-2 3.4-.2-.1a1.7 1.7 0 0 0-2 .3l-.2.2-3.4-2 .1-.3a1.7 1.7 0 0 0-1.1-1.7 1.7 1.7 0 0 0-1.8.4l-.2.2-3.4-2 .1-.3a1.7 1.7 0 0 0-.3-1.9l-.2-.2 2-3.4.3.1a1.7 1.7 0 0 0 1.9-.3l.2-.2 3.4 2-.1.3a1.7 1.7 0 0 0 2.9 1.3l.2-.2 3.4 2-.2.3Z"/></symbol>
  <symbol fill="none" stroke="currentColor" stroke-width="1.9" stroke-linecap="round" stroke-linejoin="round" id="flag" viewBox="0 0 24 24"><path d="M5 21V4"/><path d="M5 5h12l-1.5 4L17 13H5"/></symbol>
  <symbol fill="none" stroke="currentColor" stroke-width="1.9" stroke-linecap="round" stroke-linejoin="round" id="video" viewBox="0 0 24 24"><path d="M4 7h11a2 2 0 0 1 2 2v6a2 2 0 0 1-2 2H4z"/><path d="m17 10 4-2v8l-4-2"/></symbol>
  <symbol fill="none" stroke="currentColor" stroke-width="1.9" stroke-linecap="round" stroke-linejoin="round" id="bolt" viewBox="0 0 24 24"><path d="m13 2-9 13h7l-1 7 10-14h-7l1-6Z"/></symbol>
  <symbol fill="none" stroke="currentColor" stroke-width="1.9" stroke-linecap="round" stroke-linejoin="round" id="pause" viewBox="0 0 24 24"><path d="M8 5v14M16 5v14"/></symbol>
  <symbol fill="none" stroke="currentColor" stroke-width="1.9" stroke-linecap="round" stroke-linejoin="round" id="target" viewBox="0 0 24 24"><circle cx="12" cy="12" r="8"/><circle cx="12" cy="12" r="3"/><path d="M12 2v3M12 19v3M2 12h3M19 12h3"/></symbol>
  <symbol fill="none" stroke="currentColor" stroke-width="1.9" stroke-linecap="round" stroke-linejoin="round" id="camera" viewBox="0 0 24 24"><path d="M6 7h2l2-2h4l2 2h2a2 2 0 0 1 2 2v10H4V9a2 2 0 0 1 2-2Z"/><circle cx="12" cy="14" r="3"/></symbol>
  <symbol fill="none" stroke="currentColor" stroke-width="1.9" stroke-linecap="round" stroke-linejoin="round" id="lock" viewBox="0 0 24 24"><rect x="5" y="11" width="14" height="10" rx="2"/><path d="M8 11V8a4 4 0 1 1 8 0v3"/></symbol>
  <symbol fill="none" stroke="currentColor" stroke-width="1.9" stroke-linecap="round" stroke-linejoin="round" id="database" viewBox="0 0 24 24"><ellipse cx="12" cy="5" rx="7" ry="3"/><path d="M5 5v10c0 1.7 3.1 3 7 3s7-1.3 7-3V5"/><path d="M5 10c0 1.7 3.1 3 7 3s7-1.3 7-3"/></symbol>
  <symbol fill="none" stroke="currentColor" stroke-width="1.9" stroke-linecap="round" stroke-linejoin="round" id="chart" viewBox="0 0 24 24"><path d="M4 19V5"/><path d="M4 19h17"/><path d="M8 16v-5M12 16V8M16 16v-3"/></symbol>
  <symbol fill="none" stroke="currentColor" stroke-width="1.9" stroke-linecap="round" stroke-linejoin="round" id="star" viewBox="0 0 24 24"><path d="m12 3 2.6 5.3 5.9.9-4.3 4.1 1 5.8-5.2-2.8-5.2 2.8 1-5.8-4.3-4.1 5.9-.9L12 3Z"/></symbol>
  <symbol fill="none" stroke="currentColor" stroke-width="1.9" stroke-linecap="round" stroke-linejoin="round" id="package" viewBox="0 0 24 24"><path d="m12 3 8 4-8 4-8-4 8-4Z"/><path d="M4 7v10l8 4 8-4V7"/><path d="M12 11v10"/></symbol>
  <symbol fill="none" stroke="currentColor" stroke-width="1.9" stroke-linecap="round" stroke-linejoin="round" id="rocket" viewBox="0 0 24 24"><path d="M14 4c3 0 5 2 5 5 0 5-5 9-9 10l-5-5c1-4 5-10 10-10Z"/><path d="M9 15 5 19M15 9h.01"/></symbol>
  <symbol fill="none" stroke="currentColor" stroke-width="1.9" stroke-linecap="round" stroke-linejoin="round" id="folder" viewBox="0 0 24 24"><path d="M3 6h7l2 2h9v12H3z"/></symbol>
  <symbol fill="none" stroke="currentColor" stroke-width="1.9" stroke-linecap="round" stroke-linejoin="round" id="wrench" viewBox="0 0 24 24"><path d="M14.7 6.3a4 4 0 0 0 4.9 5l-8.8 8.8a2.5 2.5 0 0 1-3.5-3.5l8.8-8.8a4 4 0 0 0-1.4-1.5Z"/></symbol>
  <symbol fill="none" stroke="currentColor" stroke-width="1.9" stroke-linecap="round" stroke-linejoin="round" id="tool" viewBox="0 0 24 24"><path d="m14 7 3-3 3 3-3 3z"/><path d="m2 22 9-9"/><path d="m8 11 5 5"/></symbol>
  <symbol fill="none" stroke="currentColor" stroke-width="1.9" stroke-linecap="round" stroke-linejoin="round" id="location" viewBox="0 0 24 24"><path d="M12 21s7-4.5 7-11a7 7 0 0 0-14 0c0 6.5 7 11 7 11Z"/><circle cx="12" cy="10" r="2.5"/></symbol>
  <symbol fill="none" stroke="currentColor" stroke-width="1.9" stroke-linecap="round" stroke-linejoin="round" id="clock" viewBox="0 0 24 24"><circle cx="12" cy="12" r="9"/><path d="M12 7v5l3 2"/></symbol>
  <symbol fill="none" stroke="currentColor" stroke-width="1.9" stroke-linecap="round" stroke-linejoin="round" id="cash" viewBox="0 0 24 24"><rect x="3" y="6" width="18" height="12" rx="2"/><circle cx="12" cy="12" r="3"/><path d="M6 9h.01M18 15h.01"/></symbol>
  <symbol fill="none" stroke="currentColor" stroke-width="1.9" stroke-linecap="round" stroke-linejoin="round" id="check" viewBox="0 0 24 24"><circle cx="12" cy="12" r="9"/><path d="m8 12 3 3 5-6"/></symbol>
  <symbol fill="none" stroke="currentColor" stroke-width="1.9" stroke-linecap="round" stroke-linejoin="round" id="alert" viewBox="0 0 24 24"><path d="M12 3 2.5 20h19L12 3Z"/><path d="M12 9v5M12 17h.01"/></symbol>
  <symbol fill="none" stroke="currentColor" stroke-width="1.9" stroke-linecap="round" stroke-linejoin="round" id="chat" viewBox="0 0 24 24"><path d="M4 5h16v11H8l-4 4V5Z"/></symbol>
  <symbol fill="none" stroke="currentColor" stroke-width="1.9" stroke-linecap="round" stroke-linejoin="round" id="github" viewBox="0 0 24 24"><path d="M12 2a10 10 0 0 0-3 19c.5.1.7-.2.7-.5v-2c-2.9.6-3.5-1.2-3.5-1.2-.5-1.1-1.1-1.4-1.1-1.4-.9-.6.1-.6.1-.6 1 .1 1.5 1 1.5 1 .9 1.5 2.3 1.1 2.9.8.1-.7.3-1.1.6-1.4-2.3-.3-4.7-1.1-4.7-5A3.9 3.9 0 0 1 6.6 7c-.1-.3-.5-1.3.1-2.7 0 0 .8-.3 2.8 1a9.5 9.5 0 0 1 5 0c2-1.3 2.8-1 2.8-1 .6 1.4.2 2.4.1 2.7a3.9 3.9 0 0 1 1.1 2.7c0 3.9-2.4 4.7-4.7 5 .4.3.7.9.7 1.8v2.7c0 .3.2.6.8.5A10 10 0 0 0 12 2Z"/></symbol>
  <symbol fill="none" stroke="currentColor" stroke-width="1.9" stroke-linecap="round" stroke-linejoin="round" id="book" viewBox="0 0 24 24"><path d="M4 5.5A2.5 2.5 0 0 1 6.5 3H20v17H6.5A2.5 2.5 0 0 1 4 17.5z"/><path d="M4 17.5A2.5 2.5 0 0 0 6.5 20H20"/><path d="M8 7h8M8 11h6"/></symbol>
  <symbol fill="none" stroke="currentColor" stroke-width="1.9" stroke-linecap="round" stroke-linejoin="round" id="bug" viewBox="0 0 24 24"><path d="M8 8a4 4 0 0 1 8 0v8a4 4 0 0 1-8 0V8Z"/><path d="M3 13h5M16 13h5M4 19l4-3M20 19l-4-3M4 7l4 3M20 7l-4 3M12 4V2"/></symbol>
  <symbol fill="none" stroke="currentColor" stroke-width="1.9" stroke-linecap="round" stroke-linejoin="round" id="ban" viewBox="0 0 24 24"><circle cx="12" cy="12" r="9"/><path d="M6 6l12 12"/></symbol>
  <symbol fill="none" stroke="currentColor" stroke-width="1.9" stroke-linecap="round" stroke-linejoin="round" id="user" viewBox="0 0 24 24"><circle cx="12" cy="8" r="4"/><path d="M4 21a8 8 0 0 1 16 0"/></symbol>
  <symbol fill="none" stroke="currentColor" stroke-width="1.9" stroke-linecap="round" stroke-linejoin="round" id="store" viewBox="0 0 24 24"><path d="M4 10h16l-1-5H5z"/><path d="M5 10v10h14V10"/><path d="M9 20v-6h6v6"/></symbol>
  <symbol fill="none" stroke="currentColor" stroke-width="1.9" stroke-linecap="round" stroke-linejoin="round" id="music" viewBox="0 0 24 24"><path d="M9 18V5l12-2v13"/><circle cx="6" cy="18" r="3"/><circle cx="18" cy="16" r="3"/></symbol>
  <symbol fill="none" stroke="currentColor" stroke-width="1.9" stroke-linecap="round" stroke-linejoin="round" id="image" viewBox="0 0 24 24"><rect x="3" y="5" width="18" height="16" rx="2"/><circle cx="8" cy="10" r="2"/><path d="m21 17-5-5L5 21"/></symbol>
  <symbol fill="none" stroke="currentColor" stroke-width="1.9" stroke-linecap="round" stroke-linejoin="round" id="phone" viewBox="0 0 24 24"><path d="M7 4h10v18H7z"/><path d="M11 18h2"/></symbol>
  <symbol fill="none" stroke="currentColor" stroke-width="1.9" stroke-linecap="round" stroke-linejoin="round" id="link" viewBox="0 0 24 24"><path d="M10 13a5 5 0 0 0 7 0l2-2a5 5 0 0 0-7-7l-1 1"/><path d="M14 11a5 5 0 0 0-7 0l-2 2a5 5 0 0 0 7 7l1-1"/></symbol>
  <symbol fill="none" stroke="currentColor" stroke-width="1.9" stroke-linecap="round" stroke-linejoin="round" id="globe" viewBox="0 0 24 24"><circle cx="12" cy="12" r="9"/><path d="M3 12h18M12 3a14 14 0 0 1 0 18M12 3a14 14 0 0 0 0 18"/></symbol>
  <symbol fill="none" stroke="currentColor" stroke-width="1.9" stroke-linecap="round" stroke-linejoin="round" id="map" viewBox="0 0 24 24"><path d="m3 6 6-3 6 3 6-3v15l-6 3-6-3-6 3V6Z"/><path d="M9 3v15M15 6v15"/></symbol>
  <symbol fill="none" stroke="currentColor" stroke-width="1.9" stroke-linecap="round" stroke-linejoin="round" id="server" viewBox="0 0 24 24"><rect x="4" y="4" width="16" height="7" rx="2"/><rect x="4" y="13" width="16" height="7" rx="2"/><path d="M8 8h.01M8 17h.01"/></symbol>
  <symbol fill="none" stroke="currentColor" stroke-width="1.9" stroke-linecap="round" stroke-linejoin="round" id="search" viewBox="0 0 24 24"><circle cx="11" cy="11" r="7"/><path d="m20 20-4-4"/></symbol>
  <symbol fill="none" stroke="currentColor" stroke-width="1.9" stroke-linecap="round" stroke-linejoin="round" id="terminal" viewBox="0 0 24 24"><path d="M4 5h16v14H4z"/><path d="m7 9 3 3-3 3"/><path d="M12 15h5"/></symbol>
</svg>
